/* XPM */
static char * favicon_xpm[] = {
"16 16 3 1",
" 	c None",
".	c #000080",
"+	c #C0C0C0",
"................",
"................",
"++++++++++++++++",
".......+..++++..",
".......+...++...",
"++++...+...++...",
"+++....+........",
"++....++........",
"+....+++........",
"....++++........",
"...+++++..+..+..",
".......+..+..+..",
".......+..++++..",
"++++++++++++++++",
"................",
"................"};
