<?xml version="1.0" encoding="utf-8"?>
<svg viewBox="0 0 2450 750" width="2450" height="750" xmlns="http://www.w3.org/2000/svg">
  <g style="" transform="matrix(1.01, 0, 0, 1, 550, 140)">
    <path d="M -551.881 -175.95 L 1948.119 -175.95 L 1948.119 609.368 L -551.881 609.368 Z" clip-rule="evenodd" fill-rule="evenodd" style=""/>
    <path d="M -108.039 81.534 L -108.639 -86.566 L -202.439 -86.566 L -201.839 81.534 L -154.939 145.934 Z M -201.839 369.634 L -201.839 538.334 L -108.039 538.334 L -108.039 369.634 L -154.939 305.234 Z" fill="#fff" clip-rule="evenodd" fill-rule="evenodd"/>
    <path d="M -108.039 369.634 L -9.239 505.934 L 66.361 450.934 L -32.439 314.634 L -108.039 290.234 Z M -201.839 81.534 L -301.239 -54.766 L -376.839 0.234 L -278.039 136.434 L -201.839 160.834 Z" clip-rule="evenodd" fill-rule="evenodd" style="fill: rgb(101, 154, 210);"/>
    <path d="M -278.039 136.534 L -438.039 84.634 L -466.839 173.334 L -306.839 225.834 L -231.239 200.834 Z M -79.339 250.234 L -32.439 314.634 L 127.561 366.534 L 156.361 277.834 L -3.639 225.934 Z" fill="#00b9f1" clip-rule="evenodd" fill-rule="evenodd"/>
    <path d="M -3.739 225.934 L 156.261 173.434 L 127.461 84.734 L -32.539 136.634 L -79.439 201.034 Z M -306.839 225.934 L -466.839 277.834 L -438.039 366.534 L -278.039 314.634 L -231.139 250.234 Z" clip-rule="evenodd" fill-rule="evenodd" style="fill: rgb(0, 89, 156);"/>
    <path d="M -278.039 314.634 L -376.839 450.934 L -301.239 505.934 L -201.839 369.634 L -201.839 290.234 Z M -32.439 136.534 L 66.361 0.234 L -9.239 -54.766 L -108.039 81.434 L -108.039 160.834 Z" clip-rule="evenodd" fill-rule="evenodd" style="fill: rgb(0, 68, 130);"/>
    <path d="M 343.623 72.734 L 343.623 291.434 C 343.623 339.534 304.223 378.934 256.123 378.934 L 256.123 335.134 C 280.523 335.134 299.923 315.734 299.923 291.334 L 299.923 72.734 Z M 1142.423 116.534 L 1241.123 116.534 L 1241.123 72.834 L 1000.523 72.834 L 1000.523 116.534 L 1098.623 116.534 L 1098.623 379.034 L 1142.423 379.034 Z M 868.623 72.734 L 868.623 291.434 C 868.623 315.834 849.223 335.234 824.823 335.234 C 800.423 335.234 781.023 315.834 781.023 291.434 L 781.023 160.234 C 781.023 112.134 741.623 72.734 693.523 72.734 C 645.423 72.734 606.023 112.134 606.023 160.234 L 606.023 291.534 C 606.023 315.934 586.623 335.334 562.223 335.334 C 537.823 335.334 518.423 315.934 518.423 291.534 L 518.423 72.734 L 474.623 72.734 L 474.623 291.434 C 474.623 339.534 514.023 378.934 562.123 378.934 C 610.223 378.934 649.623 339.534 649.623 291.434 L 649.623 160.234 C 649.623 135.834 669.023 116.434 693.423 116.434 C 717.823 116.434 737.223 135.834 737.223 160.234 L 737.223 291.534 C 737.223 339.634 776.623 379.034 824.723 379.034 C 872.823 379.034 912.223 339.634 912.223 291.534 L 912.223 72.734 Z" fill="#fff" clip-rule="evenodd" fill-rule="evenodd"/>
    <g transform="matrix(6.824428, -0.018276, 0.018773, 7.009964, -218.175049, -971.69281)" style="">
      <polygon fill="#FFFFFF" points="255 168.508 241.666 168.508 241.666 155.175 234.334 155.175 234.334 168.508 221 168.508 221 175.841 234.334 175.841 234.334 189.175 241.666 189.175 241.666 175.841 255 175.841"/>
      <polygon fill="#FFFFFF" points="297.5 168.508 284.166 168.508 284.166 155.175 276.834 155.175 276.834 168.508 263.5 168.508 263.5 175.841 276.834 175.841 276.834 189.175 284.166 189.175 284.166 175.841 297.5 175.841"/>
    </g>
  </g>
</svg>